<?xml version="1.0" standalone="no"?><!DOCTYPE svg PUBLIC "-//W3C//DTD SVG 1.1//EN" "http://www.w3.org/Graphics/SVG/1.1/DTD/svg11.dtd"><svg t="1650023427875" class="icon" viewBox="0 0 1024 1024" version="1.1" xmlns="http://www.w3.org/2000/svg" p-id="8375" xmlns:xlink="http://www.w3.org/1999/xlink" width="200" height="200"><defs><style type="text/css">@font-face { font-family: feedback-iconfont; src: url("//at.alicdn.com/t/font_1031158_u69w8yhxdu.woff2?t=1630033759944") format("woff2"), url("//at.alicdn.com/t/font_1031158_u69w8yhxdu.woff?t=1630033759944") format("woff"), url("//at.alicdn.com/t/font_1031158_u69w8yhxdu.ttf?t=1630033759944") format("truetype"); }
</style></defs><path d="M945.230769 551.384615h78.769231v78.769231h-78.769231zM945.230769 472.615385h78.769231v78.76923h-78.769231zM945.230769 393.846154h78.769231v78.769231h-78.769231zM945.230769 315.076923h78.769231v78.769231h-78.769231zM866.461538 708.923077h78.769231v78.769231h-78.769231zM866.461538 630.153846h78.769231v78.769231h-78.769231z" fill="#1E2028" p-id="8376"></path><path d="M866.461538 551.384615h78.769231v78.769231h-78.769231zM866.461538 472.615385h78.769231v78.76923h-78.769231z" fill="#38B269" p-id="8377"></path><path d="M866.461538 393.846154h78.769231v78.769231h-78.769231zM866.461538 315.076923h78.769231v78.769231h-78.769231z" fill="#60EF9A" p-id="8378"></path><path d="M866.461538 236.307692h78.769231v78.769231h-78.769231zM866.461538 157.538462h78.769231v78.76923h-78.769231zM787.692308 787.692308h78.76923v78.76923h-78.76923z" fill="#1E2028" p-id="8379"></path><path d="M787.692308 708.923077h78.76923v78.769231h-78.76923zM787.692308 630.153846h78.76923v78.769231h-78.76923z" fill="#38B269" p-id="8380"></path><path d="M787.692308 551.384615h78.76923v78.769231h-78.76923zM787.692308 472.615385h78.76923v78.76923h-78.76923zM787.692308 393.846154h78.76923v78.769231h-78.76923zM787.692308 315.076923h78.76923v78.769231h-78.76923z" fill="#AF1441" p-id="8381"></path><path d="M787.692308 236.307692h78.76923v78.769231h-78.76923zM787.692308 157.538462h78.76923v78.76923h-78.76923z" fill="#60EF9A" p-id="8382"></path><path d="M787.692308 78.769231h78.76923v78.769231h-78.76923zM708.923077 866.461538h78.769231v78.769231h-78.769231z" fill="#1E2028" p-id="8383"></path><path d="M708.923077 787.692308h78.769231v78.76923h-78.769231z" fill="#38B269" p-id="8384"></path><path d="M708.923077 708.923077h78.769231v78.769231h-78.769231zM708.923077 630.153846h78.769231v78.769231h-78.769231z" fill="#AF1441" p-id="8385"></path><path d="M708.923077 551.384615h78.769231v78.769231h-78.769231zM708.923077 472.615385h78.769231v78.76923h-78.769231zM708.923077 393.846154h78.769231v78.769231h-78.769231zM708.923077 315.076923h78.769231v78.769231h-78.769231zM708.923077 236.307692h78.769231v78.769231h-78.769231zM708.923077 157.538462h78.769231v78.76923h-78.769231z" fill="#FF1A51" p-id="8386"></path><path d="M708.923077 78.769231h78.769231v78.769231h-78.769231z" fill="#AAF2C7" p-id="8387"></path><path d="M708.923077 0h78.769231v78.769231h-78.769231zM630.153846 866.461538h78.769231v78.769231h-78.769231z" fill="#1E2028" p-id="8388"></path><path d="M630.153846 787.692308h78.769231v78.76923h-78.769231z" fill="#38B269" p-id="8389"></path><path d="M630.153846 708.923077h78.769231v78.769231h-78.769231z" fill="#AF1441" p-id="8390"></path><path d="M630.153846 630.153846h78.769231v78.769231h-78.769231zM630.153846 551.384615h78.769231v78.769231h-78.769231z" fill="#FF1A51" p-id="8391"></path><path d="M630.153846 472.615385h78.769231v78.76923h-78.769231z" fill="#AF1441" p-id="8392"></path><path d="M630.153846 393.846154h78.769231v78.769231h-78.769231z" fill="#FF1A51" p-id="8393"></path><path d="M630.153846 315.076923h78.769231v78.769231h-78.769231z" fill="#AF1441" p-id="8394"></path><path d="M630.153846 236.307692h78.769231v78.769231h-78.769231z" fill="#FF1A51" p-id="8395"></path><path d="M630.153846 157.538462h78.769231v78.76923h-78.769231z" fill="#F4608A" p-id="8396"></path><path d="M630.153846 78.769231h78.769231v78.769231h-78.769231zM551.384615 945.230769h78.769231v78.769231h-78.769231z" fill="#1E2028" p-id="8397"></path><path d="M551.384615 866.461538h78.769231v78.769231h-78.769231z" fill="#38B269" p-id="8398"></path><path d="M551.384615 787.692308h78.769231v78.76923h-78.769231z" fill="#AF1441" p-id="8399"></path><path d="M551.384615 708.923077h78.769231v78.769231h-78.769231zM551.384615 630.153846h78.769231v78.769231h-78.769231zM551.384615 551.384615h78.769231v78.769231h-78.769231zM551.384615 472.615385h78.769231v78.76923h-78.769231zM551.384615 393.846154h78.769231v78.769231h-78.769231zM551.384615 315.076923h78.769231v78.769231h-78.769231z" fill="#FF1A51" p-id="8400"></path><path d="M551.384615 236.307692h78.769231v78.769231h-78.769231z" fill="#F4608A" p-id="8401"></path><path d="M551.384615 157.538462h78.769231v78.76923h-78.769231zM472.615385 945.230769h78.76923v78.769231h-78.76923z" fill="#1E2028" p-id="8402"></path><path d="M472.615385 866.461538h78.76923v78.769231h-78.76923z" fill="#38B269" p-id="8403"></path><path d="M472.615385 787.692308h78.76923v78.76923h-78.76923z" fill="#AF1441" p-id="8404"></path><path d="M472.615385 708.923077h78.76923v78.769231h-78.76923z" fill="#FF1A51" p-id="8405"></path><path d="M472.615385 630.153846h78.76923v78.769231h-78.76923z" fill="#AF1441" p-id="8406"></path><path d="M472.615385 551.384615h78.76923v78.769231h-78.76923z" fill="#FF1A51" p-id="8407"></path><path d="M472.615385 472.615385h78.76923v78.76923h-78.76923z" fill="#AF1441" p-id="8408"></path><path d="M472.615385 393.846154h78.76923v78.769231h-78.76923z" fill="#FF1A51" p-id="8409"></path><path d="M472.615385 315.076923h78.76923v78.769231h-78.76923z" fill="#F4608A" p-id="8410"></path><path d="M472.615385 236.307692h78.76923v78.769231h-78.76923zM393.846154 945.230769h78.769231v78.769231h-78.769231z" fill="#1E2028" p-id="8411"></path><path d="M393.846154 866.461538h78.769231v78.769231h-78.769231z" fill="#60EF9A" p-id="8412"></path><path d="M393.846154 787.692308h78.769231v78.76923h-78.769231z" fill="#AF1441" p-id="8413"></path><path d="M393.846154 708.923077h78.769231v78.769231h-78.769231zM393.846154 630.153846h78.769231v78.769231h-78.769231zM393.846154 551.384615h78.769231v78.769231h-78.769231zM393.846154 472.615385h78.769231v78.76923h-78.769231z" fill="#FF1A51" p-id="8414"></path><path d="M393.846154 393.846154h78.769231v78.769231h-78.769231z" fill="#F4608A" p-id="8415"></path><path d="M393.846154 315.076923h78.769231v78.769231h-78.769231zM315.076923 945.230769h78.769231v78.769231h-78.769231z" fill="#1E2028" p-id="8416"></path><path d="M315.076923 866.461538h78.769231v78.769231h-78.769231z" fill="#60EF9A" p-id="8417"></path><path d="M315.076923 787.692308h78.769231v78.76923h-78.769231z" fill="#AF1441" p-id="8418"></path><path d="M315.076923 708.923077h78.769231v78.769231h-78.769231z" fill="#FF1A51" p-id="8419"></path><path d="M315.076923 630.153846h78.769231v78.769231h-78.769231z" fill="#AF1441" p-id="8420"></path><path d="M315.076923 551.384615h78.769231v78.769231h-78.769231z" fill="#FF1A51" p-id="8421"></path><path d="M315.076923 472.615385h78.769231v78.76923h-78.769231z" fill="#F4608A" p-id="8422"></path><path d="M315.076923 393.846154h78.769231v78.769231h-78.769231zM236.307692 866.461538h78.769231v78.769231h-78.769231z" fill="#1E2028" p-id="8423"></path><path d="M236.307692 787.692308h78.769231v78.76923h-78.769231z" fill="#60EF9A" p-id="8424"></path><path d="M236.307692 708.923077h78.769231v78.769231h-78.769231zM236.307692 630.153846h78.769231v78.769231h-78.769231z" fill="#FF1A51" p-id="8425"></path><path d="M236.307692 551.384615h78.769231v78.769231h-78.769231z" fill="#F4608A" p-id="8426"></path><path d="M236.307692 472.615385h78.769231v78.76923h-78.769231zM157.538462 866.461538h78.76923v78.769231H157.538462z" fill="#1E2028" p-id="8427"></path><path d="M157.538462 787.692308h78.76923v78.76923H157.538462z" fill="#60EF9A" p-id="8428"></path><path d="M157.538462 708.923077h78.76923v78.769231H157.538462z" fill="#FF1A51" p-id="8429"></path><path d="M157.538462 630.153846h78.76923v78.769231H157.538462z" fill="#F4608A" p-id="8430"></path><path d="M157.538462 551.384615h78.76923v78.769231H157.538462zM78.769231 787.692308h78.769231v78.76923H78.769231z" fill="#1E2028" p-id="8431"></path><path d="M78.769231 708.923077h78.769231v78.769231H78.769231z" fill="#AAF2C7" p-id="8432"></path><path d="M78.769231 630.153846h78.769231v78.769231H78.769231zM0 708.923077h78.769231v78.769231H0z" fill="#1E2028" p-id="8433"></path></svg>