<svg xmlns="http://www.w3.org/2000/svg" xmlns:xlink="http://www.w3.org/1999/xlink" width="500" zoomAndPan="magnify" viewBox="0 0 375 149.999998" height="200" preserveAspectRatio="xMidYMid meet" version="1.0"><defs><g><g id="id1"/></g></defs><g fill="rgb(9.408569%, 57.649231%, 97.24884%)" fill-opacity="1"><g transform="translate(9.337844, 94.128902)"><g><path d="M 28.859375 -43.296875 C 29.765625 -43.296875 30.46875 -43.148438 30.96875 -42.859375 C 31.46875 -42.578125 31.71875 -42.179688 31.71875 -41.671875 C 31.71875 -41.453125 31.65625 -41.164062 31.53125 -40.8125 C 31.394531 -40.507812 31.207031 -40.238281 30.96875 -40 C 30.726562 -39.769531 30.507812 -39.597656 30.3125 -39.484375 C 30.125 -39.378906 29.988281 -39.28125 29.90625 -39.1875 C 29.207031 -38.800781 28.640625 -38.367188 28.203125 -37.890625 C 27.773438 -37.421875 27.410156 -36.6875 27.109375 -35.6875 L 19.234375 -7.671875 C 19.066406 -7.109375 18.984375 -6.566406 18.984375 -6.046875 C 18.984375 -5.523438 19.054688 -5.085938 19.203125 -4.734375 C 19.359375 -4.390625 19.585938 -4.023438 19.890625 -3.640625 C 20.273438 -3.078125 20.46875 -2.625 20.46875 -2.28125 C 20.46875 -2.1875 20.425781 -1.96875 20.34375 -1.625 C 20.164062 -1.019531 19.773438 -0.597656 19.171875 -0.359375 C 18.566406 -0.117188 17.65625 0 16.4375 0 L 1.171875 0 C 0.265625 0 -0.4375 -0.148438 -0.9375 -0.453125 C -1.4375 -0.753906 -1.6875 -1.164062 -1.6875 -1.6875 C -1.6875 -1.945312 -1.625 -2.226562 -1.5 -2.53125 C -1.320312 -3.007812 -1.035156 -3.378906 -0.640625 -3.640625 C -0.253906 -3.898438 -0.0195312 -4.050781 0.0625 -4.09375 C 0.757812 -4.53125 1.320312 -4.972656 1.75 -5.421875 C 2.1875 -5.878906 2.554688 -6.628906 2.859375 -7.671875 L 10.796875 -35.6875 C 10.960938 -36.25 11.046875 -36.789062 11.046875 -37.3125 C 11.046875 -37.789062 10.96875 -38.191406 10.8125 -38.515625 C 10.664062 -38.835938 10.460938 -39.21875 10.203125 -39.65625 C 9.816406 -40.21875 9.625 -40.671875 9.625 -41.015625 C 9.625 -41.140625 9.664062 -41.378906 9.75 -41.734375 C 9.925781 -42.296875 10.304688 -42.695312 10.890625 -42.9375 C 11.472656 -43.175781 12.367188 -43.296875 13.578125 -43.296875 Z M 28.859375 -43.296875 "/></g></g></g><g fill="rgb(9.408569%, 57.649231%, 97.24884%)" fill-opacity="1"><g transform="translate(33.969665, 94.128902)"><g><path d="M 40.234375 -8.96875 C 40.148438 -8.789062 40.109375 -8.53125 40.109375 -8.1875 C 40.109375 -7.882812 40.179688 -7.644531 40.328125 -7.46875 C 40.484375 -7.300781 40.691406 -7.21875 40.953125 -7.21875 C 41.472656 -7.21875 41.914062 -7.441406 42.28125 -7.890625 C 42.644531 -8.347656 42.894531 -8.578125 43.03125 -8.578125 C 43.25 -8.578125 43.421875 -8.4375 43.546875 -8.15625 C 43.679688 -7.875 43.75 -7.539062 43.75 -7.15625 C 43.789062 -5.894531 43.375 -4.664062 42.5 -3.46875 C 41.632812 -2.28125 40.367188 -1.304688 38.703125 -0.546875 C 37.035156 0.203125 35.03125 0.578125 32.6875 0.578125 C 29.832031 0.578125 27.554688 -0.078125 25.859375 -1.390625 C 24.171875 -2.710938 23.304688 -4.476562 23.265625 -6.6875 C 23.265625 -8.289062 23.65625 -10.09375 24.4375 -12.09375 L 28.015625 -21.453125 C 28.234375 -22.015625 28.34375 -22.46875 28.34375 -22.8125 C 28.34375 -23.375 28.15625 -23.816406 27.78125 -24.140625 C 27.414062 -24.472656 26.972656 -24.640625 26.453125 -24.640625 C 25.503906 -24.640625 24.59375 -24.191406 23.71875 -23.296875 C 22.851562 -22.410156 22.226562 -21.316406 21.84375 -20.015625 L 17.8125 -6.765625 C 17.632812 -6.285156 17.546875 -5.828125 17.546875 -5.390625 C 17.546875 -4.867188 17.65625 -4.445312 17.875 -4.125 C 18.09375 -3.800781 18.394531 -3.46875 18.78125 -3.125 C 19.082031 -2.863281 19.296875 -2.625 19.421875 -2.40625 C 19.554688 -2.1875 19.582031 -1.925781 19.5 -1.625 C 19.320312 -1.0625 18.910156 -0.648438 18.265625 -0.390625 C 17.617188 -0.128906 16.597656 0 15.203125 0 L 0.390625 0 C -0.734375 0 -1.546875 -0.179688 -2.046875 -0.546875 C -2.546875 -0.921875 -2.726562 -1.410156 -2.59375 -2.015625 C -2.425781 -2.535156 -1.972656 -2.988281 -1.234375 -3.375 C -0.585938 -3.726562 -0.046875 -4.140625 0.390625 -4.609375 C 0.828125 -5.085938 1.195312 -5.847656 1.5 -6.890625 L 7.28125 -25.671875 C 7.363281 -25.890625 7.40625 -26.191406 7.40625 -26.578125 C 7.40625 -27.054688 7.304688 -27.425781 7.109375 -27.6875 C 6.921875 -27.945312 6.609375 -28.273438 6.171875 -28.671875 C 5.742188 -29.015625 5.441406 -29.316406 5.265625 -29.578125 C 5.085938 -29.835938 5.066406 -30.179688 5.203125 -30.609375 C 5.460938 -31.609375 6.828125 -32.488281 9.296875 -33.25 C 11.765625 -34.007812 14.34375 -34.390625 17.03125 -34.390625 C 19.195312 -34.390625 20.90625 -33.789062 22.15625 -32.59375 C 23.414062 -31.40625 23.984375 -29.75 23.859375 -27.625 C 25.628906 -30.175781 27.507812 -31.941406 29.5 -32.921875 C 31.5 -33.898438 33.671875 -34.390625 36.015625 -34.390625 C 38.648438 -34.390625 40.78125 -33.585938 42.40625 -31.984375 C 44.03125 -30.378906 44.84375 -28.296875 44.84375 -25.734375 C 44.84375 -24.390625 44.628906 -23.070312 44.203125 -21.78125 Z M 40.234375 -8.96875 "/></g></g></g><g fill="rgb(9.408569%, 57.649231%, 97.24884%)" fill-opacity="1"><g transform="translate(78.879066, 94.128902)"><g><path d="M 40.234375 -8.96875 C 40.148438 -8.789062 40.109375 -8.53125 40.109375 -8.1875 C 40.109375 -7.882812 40.179688 -7.644531 40.328125 -7.46875 C 40.484375 -7.300781 40.691406 -7.21875 40.953125 -7.21875 C 41.472656 -7.21875 41.914062 -7.441406 42.28125 -7.890625 C 42.644531 -8.347656 42.894531 -8.578125 43.03125 -8.578125 C 43.25 -8.578125 43.421875 -8.4375 43.546875 -8.15625 C 43.679688 -7.875 43.75 -7.539062 43.75 -7.15625 C 43.789062 -5.894531 43.375 -4.664062 42.5 -3.46875 C 41.632812 -2.28125 40.367188 -1.304688 38.703125 -0.546875 C 37.035156 0.203125 35.03125 0.578125 32.6875 0.578125 C 29.832031 0.578125 27.554688 -0.078125 25.859375 -1.390625 C 24.171875 -2.710938 23.304688 -4.476562 23.265625 -6.6875 C 23.265625 -8.289062 23.65625 -10.09375 24.4375 -12.09375 L 28.015625 -21.453125 C 28.234375 -22.015625 28.34375 -22.46875 28.34375 -22.8125 C 28.34375 -23.375 28.15625 -23.816406 27.78125 -24.140625 C 27.414062 -24.472656 26.972656 -24.640625 26.453125 -24.640625 C 25.503906 -24.640625 24.59375 -24.191406 23.71875 -23.296875 C 22.851562 -22.410156 22.226562 -21.316406 21.84375 -20.015625 L 17.8125 -6.765625 C 17.632812 -6.285156 17.546875 -5.828125 17.546875 -5.390625 C 17.546875 -4.867188 17.65625 -4.445312 17.875 -4.125 C 18.09375 -3.800781 18.394531 -3.46875 18.78125 -3.125 C 19.082031 -2.863281 19.296875 -2.625 19.421875 -2.40625 C 19.554688 -2.1875 19.582031 -1.925781 19.5 -1.625 C 19.320312 -1.0625 18.910156 -0.648438 18.265625 -0.390625 C 17.617188 -0.128906 16.597656 0 15.203125 0 L 0.390625 0 C -0.734375 0 -1.546875 -0.179688 -2.046875 -0.546875 C -2.546875 -0.921875 -2.726562 -1.410156 -2.59375 -2.015625 C -2.425781 -2.535156 -1.972656 -2.988281 -1.234375 -3.375 C -0.585938 -3.726562 -0.046875 -4.140625 0.390625 -4.609375 C 0.828125 -5.085938 1.195312 -5.847656 1.5 -6.890625 L 7.28125 -25.671875 C 7.363281 -25.890625 7.40625 -26.191406 7.40625 -26.578125 C 7.40625 -27.054688 7.304688 -27.425781 7.109375 -27.6875 C 6.921875 -27.945312 6.609375 -28.273438 6.171875 -28.671875 C 5.742188 -29.015625 5.441406 -29.316406 5.265625 -29.578125 C 5.085938 -29.835938 5.066406 -30.179688 5.203125 -30.609375 C 5.460938 -31.609375 6.828125 -32.488281 9.296875 -33.25 C 11.765625 -34.007812 14.34375 -34.390625 17.03125 -34.390625 C 19.195312 -34.390625 20.90625 -33.789062 22.15625 -32.59375 C 23.414062 -31.40625 23.984375 -29.75 23.859375 -27.625 C 25.628906 -30.175781 27.507812 -31.941406 29.5 -32.921875 C 31.5 -33.898438 33.671875 -34.390625 36.015625 -34.390625 C 38.648438 -34.390625 40.78125 -33.585938 42.40625 -31.984375 C 44.03125 -30.378906 44.84375 -28.296875 44.84375 -25.734375 C 44.84375 -24.390625 44.628906 -23.070312 44.203125 -21.78125 Z M 40.234375 -8.96875 "/></g></g></g><g fill="rgb(9.408569%, 57.649231%, 97.24884%)" fill-opacity="1"><g transform="translate(123.78846, 94.128902)"><g><path d="M 22.03125 -34.703125 C 27.539062 -34.703125 31.53125 -33.820312 34 -32.0625 C 36.46875 -30.3125 37.703125 -28.070312 37.703125 -25.34375 C 37.703125 -24.519531 37.613281 -23.765625 37.4375 -23.078125 C 36.789062 -20.210938 34.984375 -18.160156 32.015625 -16.921875 C 29.046875 -15.691406 25.546875 -15.078125 21.515625 -15.078125 C 19.472656 -15.078125 17.566406 -15.207031 15.796875 -15.46875 C 15.753906 -13.21875 16.359375 -11.632812 17.609375 -10.71875 C 18.867188 -9.8125 20.625 -9.359375 22.875 -9.359375 C 23.914062 -9.359375 24.910156 -9.476562 25.859375 -9.71875 C 26.816406 -9.957031 28.035156 -10.316406 29.515625 -10.796875 C 30.722656 -11.222656 31.546875 -11.4375 31.984375 -11.4375 C 32.453125 -11.4375 32.6875 -11.15625 32.6875 -10.59375 C 32.738281 -9.070312 32.175781 -7.476562 31 -5.8125 C 29.832031 -4.144531 28.097656 -2.726562 25.796875 -1.5625 C 23.503906 -0.394531 20.734375 0.1875 17.484375 0.1875 C 12.671875 0.1875 8.726562 -1.019531 5.65625 -3.4375 C 2.582031 -5.863281 1.046875 -9.398438 1.046875 -14.046875 C 1.046875 -15.335938 1.21875 -16.851562 1.5625 -18.59375 C 2.644531 -23.914062 5.015625 -27.929688 8.671875 -30.640625 C 12.335938 -33.347656 16.789062 -34.703125 22.03125 -34.703125 Z M 16.25 -19.375 C 16.425781 -19.332031 16.664062 -19.3125 16.96875 -19.3125 C 18.78125 -19.3125 20.164062 -20.15625 21.125 -21.84375 C 22.082031 -23.53125 22.535156 -25.414062 22.484375 -27.5 C 22.441406 -28.707031 22.097656 -29.3125 21.453125 -29.3125 C 20.972656 -29.3125 20.40625 -28.929688 19.75 -28.171875 C 19.101562 -27.421875 18.46875 -26.285156 17.84375 -24.765625 C 17.21875 -23.242188 16.6875 -21.445312 16.25 -19.375 Z M 16.25 -19.375 "/></g></g></g><g fill="rgb(9.408569%, 57.649231%, 97.24884%)" fill-opacity="1"><g transform="translate(158.559065, 94.128902)"><g><path d="M 31.921875 -34.390625 C 34.347656 -34.390625 36.285156 -33.648438 37.734375 -32.171875 C 39.179688 -30.703125 39.90625 -28.882812 39.90625 -26.71875 C 39.90625 -25.894531 39.820312 -25.132812 39.65625 -24.4375 C 39.21875 -22.664062 38.390625 -21.300781 37.171875 -20.34375 C 35.960938 -19.394531 34.515625 -18.921875 32.828125 -18.921875 C 31.179688 -18.921875 29.929688 -19.304688 29.078125 -20.078125 C 28.234375 -20.859375 27.488281 -21.898438 26.84375 -23.203125 C 26.5 -23.941406 26.175781 -24.484375 25.875 -24.828125 C 25.570312 -25.171875 25.222656 -25.34375 24.828125 -25.34375 C 24.398438 -25.34375 24.019531 -25.171875 23.6875 -24.828125 C 23.363281 -24.484375 23.070312 -23.878906 22.8125 -23.015625 L 17.8125 -6.765625 C 17.726562 -6.546875 17.6875 -6.21875 17.6875 -5.78125 C 17.6875 -5.21875 17.847656 -4.75 18.171875 -4.375 C 18.492188 -4.007812 18.9375 -3.65625 19.5 -3.3125 C 20.019531 -2.96875 20.363281 -2.6875 20.53125 -2.46875 C 20.707031 -2.25 20.773438 -1.96875 20.734375 -1.625 C 20.648438 -1.0625 20.335938 -0.648438 19.796875 -0.390625 C 19.253906 -0.128906 18.332031 0 17.03125 0 L 0.390625 0 C -0.734375 0 -1.546875 -0.179688 -2.046875 -0.546875 C -2.546875 -0.921875 -2.726562 -1.410156 -2.59375 -2.015625 C -2.425781 -2.535156 -1.972656 -2.988281 -1.234375 -3.375 C -0.585938 -3.726562 -0.046875 -4.140625 0.390625 -4.609375 C 0.828125 -5.085938 1.195312 -5.847656 1.5 -6.890625 L 7.28125 -25.671875 C 7.363281 -25.890625 7.40625 -26.191406 7.40625 -26.578125 C 7.40625 -27.054688 7.304688 -27.425781 7.109375 -27.6875 C 6.921875 -27.945312 6.609375 -28.273438 6.171875 -28.671875 C 5.742188 -29.015625 5.441406 -29.316406 5.265625 -29.578125 C 5.085938 -29.835938 5.066406 -30.179688 5.203125 -30.609375 C 5.460938 -31.609375 6.828125 -32.488281 9.296875 -33.25 C 11.765625 -34.007812 14.34375 -34.390625 17.03125 -34.390625 C 18.800781 -34.390625 20.269531 -33.988281 21.4375 -33.1875 C 22.613281 -32.382812 23.375 -31.242188 23.71875 -29.765625 C 25.800781 -32.847656 28.535156 -34.390625 31.921875 -34.390625 Z M 31.921875 -34.390625 "/></g></g></g><g fill="rgb(9.408569%, 57.649231%, 97.24884%)" fill-opacity="1"><g transform="translate(194.564533, 94.128902)"><g><path d="M 61.8125 -8.96875 C 61.726562 -8.789062 61.6875 -8.53125 61.6875 -8.1875 C 61.6875 -7.882812 61.757812 -7.644531 61.90625 -7.46875 C 62.0625 -7.300781 62.269531 -7.21875 62.53125 -7.21875 C 63.050781 -7.21875 63.492188 -7.441406 63.859375 -7.890625 C 64.234375 -8.347656 64.484375 -8.578125 64.609375 -8.578125 C 64.828125 -8.578125 65 -8.4375 65.125 -8.15625 C 65.257812 -7.875 65.328125 -7.539062 65.328125 -7.15625 C 65.367188 -5.894531 64.957031 -4.664062 64.09375 -3.46875 C 63.226562 -2.28125 61.957031 -1.304688 60.28125 -0.546875 C 58.613281 0.203125 56.613281 0.578125 54.28125 0.578125 C 51.414062 0.578125 49.140625 -0.078125 47.453125 -1.390625 C 45.765625 -2.710938 44.894531 -4.476562 44.84375 -6.6875 C 44.84375 -8.289062 45.234375 -10.09375 46.015625 -12.09375 L 49.59375 -21.453125 C 49.8125 -22.015625 49.921875 -22.46875 49.921875 -22.8125 C 49.921875 -23.375 49.734375 -23.816406 49.359375 -24.140625 C 48.992188 -24.472656 48.550781 -24.640625 48.03125 -24.640625 C 47.300781 -24.640625 46.546875 -24.3125 45.765625 -23.65625 C 44.984375 -23.007812 44.289062 -21.992188 43.6875 -20.609375 L 40.109375 -8.96875 C 40.015625 -8.789062 39.96875 -8.53125 39.96875 -8.1875 C 39.96875 -7.882812 40.046875 -7.644531 40.203125 -7.46875 C 40.359375 -7.300781 40.5625 -7.21875 40.8125 -7.21875 C 41.332031 -7.21875 41.773438 -7.441406 42.140625 -7.890625 C 42.515625 -8.347656 42.769531 -8.578125 42.90625 -8.578125 C 43.113281 -8.578125 43.28125 -8.4375 43.40625 -8.15625 C 43.539062 -7.875 43.609375 -7.539062 43.609375 -7.15625 C 43.660156 -5.894531 43.25 -4.664062 42.375 -3.46875 C 41.507812 -2.28125 40.242188 -1.304688 38.578125 -0.546875 C 36.910156 0.203125 34.90625 0.578125 32.5625 0.578125 C 29.707031 0.578125 27.429688 -0.078125 25.734375 -1.390625 C 24.046875 -2.710938 23.179688 -4.476562 23.140625 -6.6875 C 23.140625 -8.289062 23.53125 -10.09375 24.3125 -12.09375 L 27.890625 -21.453125 C 28.097656 -22.015625 28.203125 -22.46875 28.203125 -22.8125 C 28.203125 -23.375 28.019531 -23.816406 27.65625 -24.140625 C 27.289062 -24.472656 26.847656 -24.640625 26.328125 -24.640625 C 25.585938 -24.640625 24.828125 -24.320312 24.046875 -23.6875 C 23.265625 -23.0625 22.613281 -22.054688 22.09375 -20.671875 L 17.8125 -6.765625 C 17.632812 -6.285156 17.546875 -5.828125 17.546875 -5.390625 C 17.546875 -4.867188 17.65625 -4.445312 17.875 -4.125 C 18.09375 -3.800781 18.394531 -3.46875 18.78125 -3.125 C 19.082031 -2.863281 19.296875 -2.625 19.421875 -2.40625 C 19.554688 -2.1875 19.582031 -1.925781 19.5 -1.625 C 19.320312 -1.0625 18.910156 -0.648438 18.265625 -0.390625 C 17.617188 -0.128906 16.597656 0 15.203125 0 L 0.390625 0 C -0.734375 0 -1.546875 -0.179688 -2.046875 -0.546875 C -2.546875 -0.921875 -2.726562 -1.410156 -2.59375 -2.015625 C -2.425781 -2.535156 -1.972656 -2.988281 -1.234375 -3.375 C -0.585938 -3.726562 -0.046875 -4.140625 0.390625 -4.609375 C 0.828125 -5.085938 1.195312 -5.847656 1.5 -6.890625 L 7.28125 -25.671875 C 7.363281 -25.890625 7.40625 -26.191406 7.40625 -26.578125 C 7.40625 -27.054688 7.304688 -27.425781 7.109375 -27.6875 C 6.921875 -27.945312 6.609375 -28.273438 6.171875 -28.671875 C 5.742188 -29.015625 5.441406 -29.316406 5.265625 -29.578125 C 5.085938 -29.835938 5.066406 -30.179688 5.203125 -30.609375 C 5.460938 -31.609375 6.828125 -32.488281 9.296875 -33.25 C 11.765625 -34.007812 14.34375 -34.390625 17.03125 -34.390625 C 19.15625 -34.390625 20.832031 -33.800781 22.0625 -32.625 C 23.300781 -31.457031 23.898438 -29.851562 23.859375 -27.8125 C 25.628906 -30.289062 27.5 -32.003906 29.46875 -32.953125 C 31.445312 -33.910156 33.582031 -34.390625 35.875 -34.390625 C 38.394531 -34.390625 40.441406 -33.660156 42.015625 -32.203125 C 43.597656 -30.753906 44.476562 -28.859375 44.65625 -26.515625 C 46.519531 -29.460938 48.507812 -31.507812 50.625 -32.65625 C 52.75 -33.8125 55.070312 -34.390625 57.59375 -34.390625 C 60.238281 -34.390625 62.375 -33.585938 64 -31.984375 C 65.625 -30.378906 66.4375 -28.296875 66.4375 -25.734375 C 66.4375 -24.390625 66.21875 -23.070312 65.78125 -21.78125 Z M 61.8125 -8.96875 "/></g></g></g><g fill="rgb(9.408569%, 57.649231%, 97.24884%)" fill-opacity="1"><g transform="translate(261.051361, 94.128902)"><g><path d="M 25.15625 -34.390625 C 31.050781 -34.390625 35.394531 -33.195312 38.1875 -30.8125 C 40.976562 -28.425781 42.375 -25.304688 42.375 -21.453125 C 42.375 -20.148438 42.203125 -18.695312 41.859375 -17.09375 C 41.035156 -13.539062 39.492188 -10.429688 37.234375 -7.765625 C 34.984375 -5.097656 32.222656 -3.039062 28.953125 -1.59375 C 25.679688 -0.144531 22.140625 0.578125 18.328125 0.578125 C 12.304688 0.578125 7.851562 -0.617188 4.96875 -3.015625 C 2.09375 -5.421875 0.65625 -8.617188 0.65625 -12.609375 C 0.65625 -13.953125 0.828125 -15.445312 1.171875 -17.09375 C 1.992188 -20.476562 3.5625 -23.476562 5.875 -26.09375 C 8.195312 -28.71875 11.035156 -30.753906 14.390625 -32.203125 C 17.753906 -33.660156 21.34375 -34.390625 25.15625 -34.390625 Z M 24.953125 -28.59375 C 24.046875 -28.59375 23.082031 -27.78125 22.0625 -26.15625 C 21.050781 -24.53125 19.847656 -21.46875 18.453125 -16.96875 C 17.066406 -12.457031 16.375 -9.289062 16.375 -7.46875 C 16.375 -6.519531 16.523438 -5.878906 16.828125 -5.546875 C 17.140625 -5.222656 17.550781 -5.0625 18.0625 -5.0625 C 18.976562 -4.976562 19.921875 -5.757812 20.890625 -7.40625 C 21.867188 -9.050781 23.09375 -12.257812 24.5625 -17.03125 C 25.90625 -21.226562 26.578125 -24.28125 26.578125 -26.1875 C 26.578125 -27.101562 26.4375 -27.734375 26.15625 -28.078125 C 25.875 -28.421875 25.472656 -28.59375 24.953125 -28.59375 Z M 24.953125 -28.59375 "/></g></g></g><g fill="rgb(9.408569%, 57.649231%, 97.24884%)" fill-opacity="1"><g transform="translate(302.061239, 94.128902)"><g><path d="M 21.390625 -34.96875 C 24.984375 -34.96875 28.085938 -34.640625 30.703125 -33.984375 C 33.328125 -33.335938 35.34375 -32.429688 36.75 -31.265625 C 38.164062 -30.097656 38.875 -28.773438 38.875 -27.296875 C 38.875 -25.785156 38.273438 -24.550781 37.078125 -23.59375 C 35.890625 -22.644531 34.234375 -22.171875 32.109375 -22.171875 C 29.941406 -22.171875 28.109375 -22.710938 26.609375 -23.796875 C 25.117188 -24.878906 24.375 -26.242188 24.375 -27.890625 C 24.375 -28.453125 24.460938 -28.992188 24.640625 -29.515625 C 23.859375 -29.722656 23.164062 -29.828125 22.5625 -29.828125 C 21.476562 -29.828125 20.578125 -29.566406 19.859375 -29.046875 C 19.140625 -28.535156 18.800781 -27.800781 18.84375 -26.84375 C 18.84375 -25.71875 19.40625 -24.765625 20.53125 -23.984375 C 21.664062 -23.203125 23.488281 -22.226562 26 -21.0625 C 28.164062 -20.101562 29.953125 -19.222656 31.359375 -18.421875 C 32.765625 -17.617188 33.957031 -16.609375 34.9375 -15.390625 C 35.914062 -14.179688 36.40625 -12.753906 36.40625 -11.109375 C 36.40625 -10.765625 36.316406 -10.117188 36.140625 -9.171875 C 35.441406 -6.265625 33.507812 -3.960938 30.34375 -2.265625 C 27.1875 -0.578125 23.03125 0.265625 17.875 0.265625 C 12.070312 0.265625 7.46875 -0.515625 4.0625 -2.078125 C 0.65625 -3.640625 -1.046875 -5.785156 -1.046875 -8.515625 C -1.046875 -10.378906 -0.484375 -11.785156 0.640625 -12.734375 C 1.773438 -13.691406 3.273438 -14.171875 5.140625 -14.171875 C 7.304688 -14.171875 9.15625 -13.5 10.6875 -12.15625 C 12.226562 -10.8125 13 -9.097656 13 -7.015625 C 13 -6.453125 12.9375 -5.867188 12.8125 -5.265625 C 13.84375 -5.003906 14.835938 -4.875 15.796875 -4.875 C 16.921875 -4.875 17.847656 -5.175781 18.578125 -5.78125 C 19.316406 -6.382812 19.6875 -7.226562 19.6875 -8.3125 C 19.644531 -9.3125 19.144531 -10.164062 18.1875 -10.875 C 17.238281 -11.59375 15.726562 -12.453125 13.65625 -13.453125 C 11.695312 -14.359375 10.085938 -15.210938 8.828125 -16.015625 C 7.578125 -16.816406 6.507812 -17.820312 5.625 -19.03125 C 4.738281 -20.25 4.296875 -21.679688 4.296875 -23.328125 C 4.296875 -26.890625 5.773438 -29.71875 8.734375 -31.8125 C 11.703125 -33.914062 15.921875 -34.96875 21.390625 -34.96875 Z M 21.390625 -34.96875 "/></g></g></g><g fill="rgb(9.408569%, 57.649231%, 97.24884%)" fill-opacity="1"><g transform="translate(338.976604, 94.128902)"><g><path d="M 29.0625 -33.546875 C 29.882812 -33.546875 30.519531 -33.367188 30.96875 -33.015625 C 31.425781 -32.671875 31.65625 -32.195312 31.65625 -31.59375 C 31.65625 -31.414062 31.613281 -31.113281 31.53125 -30.6875 C 30.96875 -28.769531 29.664062 -27.8125 27.625 -27.8125 L 23.859375 -27.8125 L 18.984375 -11.765625 C 18.765625 -11.117188 18.65625 -10.445312 18.65625 -9.75 C 18.65625 -8.96875 18.867188 -8.425781 19.296875 -8.125 C 19.734375 -7.820312 20.34375 -7.671875 21.125 -7.671875 C 21.820312 -7.671875 22.6875 -7.757812 23.71875 -7.9375 C 24.238281 -8.0625 24.695312 -8.125 25.09375 -8.125 C 25.394531 -8.125 25.617188 -8.023438 25.765625 -7.828125 C 25.921875 -7.640625 26 -7.390625 26 -7.078125 C 26.039062 -6.210938 25.398438 -5.160156 24.078125 -3.921875 C 22.753906 -2.691406 20.96875 -1.632812 18.71875 -0.75 C 16.46875 0.132812 13.976562 0.578125 11.25 0.578125 C 8.300781 0.578125 5.9375 -0.0859375 4.15625 -1.421875 C 2.382812 -2.765625 1.5 -4.609375 1.5 -6.953125 C 1.5 -8.035156 1.671875 -9.078125 2.015625 -10.078125 L 6.171875 -22.9375 C 6.390625 -23.675781 6.5 -24.265625 6.5 -24.703125 C 6.5 -25.566406 6.289062 -26.300781 5.875 -26.90625 C 5.46875 -27.507812 4.894531 -28.140625 4.15625 -28.796875 C 3.507812 -29.398438 3.054688 -29.90625 2.796875 -30.3125 C 2.535156 -30.726562 2.46875 -31.21875 2.59375 -31.78125 C 2.769531 -32.34375 3.140625 -32.773438 3.703125 -33.078125 C 4.265625 -33.390625 5.15625 -33.546875 6.375 -33.546875 L 10.015625 -33.546875 L 14.109375 -37.640625 C 15.535156 -39.066406 16.84375 -40.0625 18.03125 -40.625 C 19.226562 -41.1875 20.78125 -41.46875 22.6875 -41.46875 C 25.414062 -41.46875 26.78125 -40.425781 26.78125 -38.34375 C 26.78125 -37.695312 26.691406 -37.09375 26.515625 -36.53125 L 25.609375 -33.546875 Z M 29.0625 -33.546875 "/></g></g></g></svg>